{"buffers":[{"uri":"WaterBottle.bin","byteLength":149412}],"asset":{"version":"2.0","generator":"gltfpack 0.17"},"bufferViews":[{"buffer":0,"byteOffset":0,"byteLength":20392,"byteStride":8,"target":34962},{"buffer":0,"byteOffset":20392,"byteLength":30588,"byteStride":12,"target":34962},{"buffer":0,"byteOffset":50980,"byteLength":40784,"byteStride":16,"target":34962},{"buffer":0,"byteOffset":91764,"byteLength":30588,"byteStride":12,"target":34962},{"buffer":0,"byteOffset":122352,"byteLength":27060,"target":34963}],"accessors":[{"bufferView":0,"byteOffset":0,"componentType":5126,"count":2549,"type":"VEC2"},{"bufferView":1,"byteOffset":0,"componentType":5126,"count":2549,"type":"VEC3"},{"bufferView":2,"byteOffset":0,"componentType":5126,"count":2549,"type":"VEC4"},{"bufferView":3,"byteOffset":0,"componentType":5126,"count":2549,"type":"VEC3","min":[-0.054450009,-0.130220339,-0.0544500239],"max":[0.054450009,0.130220339,0.0544500239]},{"bufferView":4,"byteOffset":0,"componentType":5123,"count":13530,"type":"SCALAR"}],"images":[{"uri":"WaterBottle_baseColor.png"},{"uri":"WaterBottle_occlusionRoughnessMetallic.png"},{"uri":"WaterBottle_normal.png"},{"uri":"WaterBottle_emissive.png"}],"textures":[{"source":0},{"source":1},{"source":2},{"source":3}],"materials":[{"name":"BottleMat","pbrMetallicRoughness":{"baseColorTexture":{"index":0},"metallicRoughnessTexture":{"index":1}},"normalTexture":{"index":2},"occlusionTexture":{"index":1},"emissiveTexture":{"index":3},"emissiveFactor":[1,1,1]}],"meshes":[{"primitives":[{"attributes":{"TEXCOORD_0":0,"NORMAL":1,"TANGENT":2,"POSITION":3},"indices":4,"material":0}]}],"nodes":[{"mesh":0}],"scenes":[{"nodes":[0]}],"scene":0}