{"buffers":[{"uri":"scene.bin","byteLength":781800}],"asset":{"version":"2.0","generator":"gltfpack 0.17","extras":{"author":"ctxwing (https://sketchfab.com/ctxwing)","license":"CC-BY-4.0 (http://creativecommons.org/licenses/by/4.0/)","source":"https://sketchfab.com/models/a1de6f1e738d446da3d50a3eebffe883","title":"Damaged Helmet"}},"bufferViews":[{"buffer":0,"byteOffset":0,"byteLength":172272,"byteStride":12,"target":34962},{"buffer":0,"byteOffset":172272,"byteLength":172272,"byteStride":12,"target":34962},{"buffer":0,"byteOffset":344544,"byteLength":229696,"byteStride":16,"target":34962},{"buffer":0,"byteOffset":574240,"byteLength":114848,"byteStride":8,"target":34962},{"buffer":0,"byteOffset":689088,"byteLength":92712,"target":34963}],"accessors":[{"bufferView":0,"byteOffset":0,"componentType":5126,"count":14356,"type":"VEC3"},{"bufferView":1,"byteOffset":0,"componentType":5126,"count":14356,"type":"VEC3","min":[-0.947458565,-0.900973916,-1.18715489],"max":[0.942495406,0.900994897,0.812844992]},{"bufferView":2,"byteOffset":0,"componentType":5126,"count":14356,"type":"VEC4"},{"bufferView":3,"byteOffset":0,"componentType":5126,"count":14356,"type":"VEC2"},{"bufferView":4,"byteOffset":0,"componentType":5123,"count":46356,"type":"SCALAR"}],"samplers":[{"magFilter":9729,"minFilter":9987}],"images":[{"uri":"textures/Material_MR_emissive.jpeg"},{"uri":"textures/Material_MR_metallicRoughness.png"},{"uri":"textures/Material_MR_baseColor.jpeg"},{"uri":"textures/Material_MR_normal.jpeg"}],"textures":[{"sampler":0,"source":0},{"sampler":0,"source":1},{"sampler":0,"source":2},{"sampler":0,"source":3}],"materials":[{"name":"Material_MR","pbrMetallicRoughness":{"baseColorTexture":{"index":2},"metallicRoughnessTexture":{"index":1}},"normalTexture":{"index":3},"occlusionTexture":{"index":1},"emissiveTexture":{"index":0},"emissiveFactor":[1,1,1]}],"meshes":[{"primitives":[{"attributes":{"NORMAL":0,"POSITION":1,"TANGENT":2,"TEXCOORD_0":3},"indices":4,"material":0}]}],"nodes":[{"mesh":0}],"scenes":[{"name":"OSG_Scene","nodes":[0]}],"scene":0}