{
  "accessors": [
    {
      "bufferView": 2,
      "componentType": 5126,
      "count": 14356,
      "max": [
        0.94249540567398071,
        0.81284511089324951,
        0.90097391605377197
      ],
      "min": [
        -0.94745856523513794,
        -1.18715500831604,
        -0.90099495649337769
      ],
      "type": "VEC3"
    },
    {
      "bufferView": 2,
      "byteOffset": 172272,
      "componentType": 5126,
      "count": 14356,
      "max": [
        1,
        1,
        1
      ],
      "min": [
        -1,
        -1,
        -1
      ],
      "type": "VEC3"
    },
    {
      "bufferView": 3,
      "componentType": 5126,
      "count": 14356,
      "max": [
        1,
        1,
        1,
        1
      ],
      "min": [
        -1,
        -1,
        -1,
        -1
      ],
      "type": "VEC4"
    },
    {
      "bufferView": 1,
      "componentType": 5126,
      "count": 14356,
      "max": [
        0.99997597932815552,
        1.9986660480499268
      ],
      "min": [
        0.0024486400652676821,
        1.0005531311035156
      ],
      "type": "VEC2"
    },
    {
      "bufferView": 1,
      "byteOffset": 114848,
      "componentType": 5126,
      "count": 14356,
      "max": [
        0.99997597932815552,
        1.9986660480499268
      ],
      "min": [
        0.0024486400652676821,
        1.0005531311035156
      ],
      "type": "VEC2"
    },
    {
      "bufferView": 1,
      "byteOffset": 229696,
      "componentType": 5126,
      "count": 14356,
      "max": [
        0.99997597932815552,
        1.9986660480499268
      ],
      "min": [
        0.0024486400652676821,
        1.0005531311035156
      ],
      "type": "VEC2"
    },
    {
      "bufferView": 1,
      "byteOffset": 344544,
      "componentType": 5126,
      "count": 14356,
      "max": [
        0.99997597932815552,
        1.9986660480499268
      ],
      "min": [
        0.0024486400652676821,
        1.0005531311035156
      ],
      "type": "VEC2"
    },
    {
      "bufferView": 1,
      "byteOffset": 459392,
      "componentType": 5126,
      "count": 14356,
      "max": [
        0.99997597932815552,
        1.9986660480499268
      ],
      "min": [
        0.0024486400652676821,
        1.0005531311035156
      ],
      "type": "VEC2"
    },
    {
      "bufferView": 1,
      "byteOffset": 574240,
      "componentType": 5126,
      "count": 14356,
      "max": [
        0.99997597932815552,
        1.9986660480499268
      ],
      "min": [
        0.0024486400652676821,
        1.0005531311035156
      ],
      "type": "VEC2"
    },
    {
      "bufferView": 0,
      "componentType": 5125,
      "count": 46356,
      "max": [
        14355
      ],
      "min": [
        0
      ],
      "type": "SCALAR"
    }
  ],
  "asset": {
    "extras": {
      "author": "ctxwing (https://sketchfab.com/ctxwing)",
      "license": "CC-BY-4.0 (http://creativecommons.org/licenses/by/4.0/)",
      "source": "https://sketchfab.com/models/a1de6f1e738d446da3d50a3eebffe883",
      "title": "Damaged Helmet"
    },
    "generator": "Sketchfab-4.16.0",
    "version": "2.0"
  },
  "bufferViews": [
    {
      "buffer": 0,
      "byteLength": 185424,
      "byteOffset": 0,
      "name": "floatBufferViews",
      "target": 34963
    },
    {
      "buffer": 0,
      "byteLength": 689088,
      "byteOffset": 185424,
      "byteStride": 8,
      "name": "floatBufferViews",
      "target": 34962
    },
    {
      "buffer": 0,
      "byteLength": 344544,
      "byteOffset": 874512,
      "byteStride": 12,
      "name": "floatBufferViews",
      "target": 34962
    },
    {
      "buffer": 0,
      "byteLength": 229696,
      "byteOffset": 1219056,
      "byteStride": 16,
      "name": "floatBufferViews",
      "target": 34962
    }
  ],
  "buffers": [
    {
      "byteLength": 1448752,
      "uri": "scene.bin"
    }
  ],
  "images": [
    {
      "uri": "textures/Material_MR_emissive.jpeg"
    },
    {
      "uri": "textures/Material_MR_metallicRoughness.png"
    },
    {
      "uri": "textures/Material_MR_baseColor.jpeg"
    },
    {
      "uri": "textures/Material_MR_normal.jpeg"
    }
  ],
  "materials": [
    {
      "doubleSided": false,
      "emissiveFactor": [
        1,
        1,
        1
      ],
      "emissiveTexture": {
        "index": 0,
        "texCoord": 0
      },
      "name": "Material_MR",
      "normalTexture": {
        "index": 3,
        "scale": 1,
        "texCoord": 0
      },
      "occlusionTexture": {
        "index": 1,
        "strength": 1,
        "texCoord": 0
      },
      "pbrMetallicRoughness": {
        "baseColorFactor": [
          1,
          1,
          1,
          1
        ],
        "baseColorTexture": {
          "index": 2,
          "texCoord": 0
        },
        "metallicFactor": 1,
        "metallicRoughnessTexture": {
          "index": 1,
          "texCoord": 0
        },
        "roughnessFactor": 1
      }
    }
  ],
  "meshes": [
    {
      "primitives": [
        {
          "attributes": {
            "NORMAL": 1,
            "POSITION": 0,
            "TANGENT": 2,
            "TEXCOORD_0": 3,
            "TEXCOORD_1": 4,
            "TEXCOORD_2": 5,
            "TEXCOORD_3": 6,
            "TEXCOORD_4": 7,
            "TEXCOORD_5": 8
          },
          "indices": 9,
          "material": 0,
          "mode": 4
        }
      ]
    }
  ],
  "nodes": [
    {
      "children": [
        1
      ],
      "name": "RootNode (gltf orientation matrix)",
      "rotation": [
        -0.70710678118654746,
        -0,
        -0,
        0.70710678118654757
      ]
    },
    {
      "children": [
        2
      ],
      "name": "RootNode (model correction matrix)"
    },
    {
      "children": [
        3
      ],
      "name": "root"
    },
    {
      "children": [
        4
      ],
      "matrix": [
        1,
        0,
        0,
        0,
        0,
        2.2204460492503131e-16,
        1,
        0,
        0,
        -1,
        2.2204460492503131e-16,
        0,
        0,
        0,
        0,
        1
      ],
      "name": "GLTF_SceneRootNode"
    },
    {
      "children": [
        5
      ],
      "matrix": [
        1,
        0,
        -0,
        0,
        0,
        0,
        1,
        0,
        0,
        -1,
        0,
        0,
        0,
        0,
        0,
        1
      ],
      "name": "node_damagedHelmet_-6514_0"
    },
    {
      "mesh": 0,
      "name": ""
    }
  ],
  "samplers": [
    {
      "magFilter": 9729,
      "minFilter": 9987,
      "wrapS": 10497,
      "wrapT": 10497
    }
  ],
  "scene": 0,
  "scenes": [
    {
      "name": "OSG_Scene",
      "nodes": [
        0
      ]
    }
  ],
  "textures": [
    {
      "sampler": 0,
      "source": 0
    },
    {
      "sampler": 0,
      "source": 1
    },
    {
      "sampler": 0,
      "source": 2
    },
    {
      "sampler": 0,
      "source": 3
    }
  ]
}

